<?xml version="1.0" encoding="UTF-8"?><svg id="Layer_1" xmlns="http://www.w3.org/2000/svg" viewBox="0 0 507.68 493.06"><path d="M390.88,110.35c-17.2-17.17-47.54-13.37-81.81,2.84-17-7.07-35.65-10.95-55.2-10.95-79.73,0-144.34,64.63-144.34,144.36,0,19.69,3.95,38.47,11.09,55.57-15.71,33.8-19.25,63.67-2.25,80.67,7.76,7.76,18.18,11.24,30.46,11.24,14.73,0,32.12-5.04,50.67-13.74,16.78,6.84,35.13,10.6,54.36,10.6,79.71,0,144.34-64.63,144.34-144.34,0-19.05-3.68-37.23-10.4-53.89,16.41-34.52,20.33-65.1,3.06-82.37Zm-245.37,106.24c8.85-3.19,11.61-6.28,14.35-16.31,.17-.64,1.09-.64,1.26,0,2.74,10.03,5.49,13.12,14.33,16.31,.59,.2,.59,1.01,0,1.24-8.85,3.16-11.59,6.25-14.33,16.28-.17,.64-1.09,.64-1.26,0-2.74-10.03-5.51-13.12-14.35-16.28-.57-.22-.57-1.04,0-1.24Zm-10.4,149.53c-5.86-5.86-6.03-19.12,.07-37.41,10.08,14.6,22.83,27.25,37.53,37.26-18.38,6.15-31.72,6.03-37.6,.15Zm117.04-53.62c-56.6,0-70.42-18.21-70.42-56.6,0-13.91,3.16-26.76,8.82-37.78,1.36-2.64,1.06-5.9-1.04-7.98-2.67-2.62-4.37-6.05-4.84-9.73-.32-2.45-.1-4.99,.74-7.49,.62-1.75,1.51-3.41,2.64-4.87,2.94-3.76,7.54-6.23,12.77-6.65,4.03-.3,9.27,3.16,12.63,5.78,2.08,1.61,4.89,1.93,7.24,.74,9.29-4.64,19.89-7.24,31.45-7.24s22.8,2.59,32.32,7.29c2.32,1.14,5.11,.82,7.17-.79,3.36-2.62,8.62-6.08,12.7-5.76,5.21,.4,9.78,2.87,12.7,6.62,1.14,1.46,2.05,3.11,2.64,4.87,.84,2.5,1.06,5.04,.77,7.49-.47,3.61-2.12,6.97-4.69,9.56-2.03,2.08-2.27,5.26-.94,7.83,5.76,11.02,8.89,23.92,8.77,37.9,.2,38.59-13.22,56.8-71.43,56.8Zm94.06,.62c-8.85,3.16-11.61,6.25-14.35,16.31-.17,.64-1.09,.64-1.26,0-2.74-10.06-5.48-13.14-14.33-16.31-.59-.2-.59-1.01,0-1.24,8.85-3.16,11.59-6.25,14.33-16.31,.17-.64,1.09-.64,1.26,0,2.74,10.06,5.51,13.14,14.35,16.31,.57,.22,.57,1.04,0,1.24Zm-10.67-185.55c9.61-3.34,17.86-4.94,24.46-4.94s11.22,1.51,14.16,4.45c6,6,6.03,19.84-.57,38.86-10.15-15.05-23.08-28.09-38.05-38.37Z"/><path d="M252.56,229.19c-12.4,0-19.62,4.6-19.62,13.61,0,7.78,6.4,11.19,19.62,11.19s19.59-2.99,19.59-11.19c0-9.02-6.99-13.61-19.59-13.61Z"/></svg>