<svg width="930" height="161" viewBox="0 0 930 161" fill="none" xmlns="http://www.w3.org/2000/svg">
<path d="M464.646 160.846C464.842 161.041 465.158 161.041 465.354 160.846L468.536 157.664C468.731 157.469 468.731 157.152 468.536 156.957C468.34 156.762 468.024 156.762 467.828 156.957L465 159.785L462.172 156.957C461.976 156.762 461.66 156.762 461.464 156.957C461.269 157.152 461.269 157.469 461.464 157.664L464.646 160.846ZM464.5 53.3661L464.5 160.492L465.5 160.492L465.5 53.3661L464.5 53.3661Z" fill="white"/>
<path d="M399.594 27.334H408.633V29.3271H397.245V10.8428H399.594V27.334ZM422.725 20.7832H415.006V27.334H424.007V29.3271H412.657V10.8428H423.893V12.8486H415.006V18.79H422.725V20.7832ZM440.638 12.8486H434.925V29.3271H432.64V12.8486H426.927V10.8428H440.638V12.8486ZM450.921 11.4141C450.921 11.8118 450.87 12.2308 450.769 12.6709C450.675 13.111 450.536 13.5426 450.35 13.9658C450.155 14.3975 449.922 14.8079 449.651 15.1973C449.381 15.5866 449.067 15.9336 448.712 16.2383L447.43 15.3242C447.827 14.7233 448.124 14.1097 448.318 13.4834C448.521 12.8571 448.623 12.18 448.623 11.4521V9.54785H450.921V11.4141ZM469.075 24.6553C469.075 24.0882 468.944 23.61 468.682 23.2207C468.428 22.8314 468.098 22.5013 467.691 22.2305C467.285 21.9681 466.837 21.748 466.346 21.5703C465.863 21.3926 465.398 21.2318 464.949 21.0879C464.298 20.8763 463.633 20.6224 462.956 20.3262C462.287 20.0215 461.678 19.6576 461.128 19.2344C460.569 18.8027 460.112 18.2949 459.757 17.7109C459.41 17.1185 459.236 16.4245 459.236 15.6289C459.236 14.8333 459.41 14.1224 459.757 13.4961C460.112 12.8698 460.574 12.3408 461.141 11.9092C461.708 11.4775 462.351 11.1517 463.07 10.9316C463.79 10.7031 464.513 10.5889 465.241 10.5889C466.045 10.5889 466.82 10.7243 467.564 10.9951C468.309 11.2575 468.969 11.6299 469.545 12.1123C470.12 12.5947 470.582 13.1787 470.929 13.8643C471.276 14.5498 471.458 15.3158 471.475 16.1621H469.062C468.995 15.6289 468.864 15.1465 468.669 14.7148C468.474 14.2747 468.216 13.8981 467.895 13.585C467.573 13.2718 467.188 13.0306 466.739 12.8613C466.299 12.6836 465.8 12.5947 465.241 12.5947C464.793 12.5947 464.353 12.6582 463.921 12.7852C463.498 12.9121 463.121 13.1025 462.791 13.3564C462.452 13.6104 462.182 13.9235 461.979 14.2959C461.784 14.6683 461.687 15.0999 461.687 15.5908C461.695 16.124 461.83 16.5768 462.093 16.9492C462.355 17.3132 462.689 17.6221 463.096 17.876C463.493 18.1299 463.925 18.3415 464.391 18.5107C464.865 18.68 465.309 18.8281 465.724 18.9551C466.409 19.1667 467.095 19.4248 467.78 19.7295C468.466 20.0257 469.092 20.4066 469.659 20.8721C470.218 21.3037 470.666 21.8327 471.005 22.459C471.352 23.0853 471.525 23.8089 471.525 24.6299C471.525 25.4593 471.339 26.1829 470.967 26.8008C470.603 27.4186 470.129 27.9307 469.545 28.3369C468.961 28.7516 468.301 29.0648 467.564 29.2764C466.828 29.4795 466.092 29.5811 465.355 29.5811C464.475 29.5811 463.608 29.4329 462.753 29.1367C461.907 28.8405 461.17 28.4131 460.544 27.8545C459.985 27.3721 459.541 26.8092 459.211 26.166C458.889 25.5143 458.716 24.7907 458.69 23.9951H461.09C461.166 24.5706 461.323 25.0827 461.56 25.5312C461.797 25.9714 462.101 26.3438 462.474 26.6484C462.846 26.9616 463.273 27.1986 463.756 27.3594C464.247 27.5117 464.78 27.5879 465.355 27.5879C465.812 27.5879 466.261 27.5329 466.701 27.4229C467.15 27.3044 467.548 27.1224 467.895 26.877C468.242 26.64 468.525 26.3395 468.745 25.9756C468.965 25.6032 469.075 25.1631 469.075 24.6553ZM502.591 26.9023C502.303 27.2409 501.998 27.5498 501.677 27.8291C501.355 28.0999 501.021 28.3369 500.674 28.54C500.081 28.8955 499.442 29.1579 498.757 29.3271C498.071 29.5049 497.352 29.5895 496.599 29.5811C495.837 29.5726 495.134 29.4583 494.491 29.2383C493.856 29.0098 493.285 28.6966 492.777 28.2988C492.27 27.9095 491.825 27.4482 491.444 26.915C491.063 26.3818 490.746 25.8021 490.492 25.1758C490.23 24.5579 490.031 23.9105 489.896 23.2334C489.769 22.5479 489.701 21.8581 489.692 21.1641V19.0186C489.701 18.333 489.76 17.6517 489.87 16.9746C489.989 16.2891 490.166 15.6331 490.403 15.0068C490.64 14.3805 490.937 13.8008 491.292 13.2676C491.647 12.7259 492.075 12.2562 492.574 11.8584C493.065 11.4691 493.624 11.1602 494.25 10.9316C494.876 10.7031 495.579 10.5889 496.357 10.5889C497.221 10.5889 498.016 10.7243 498.744 10.9951C499.472 11.2575 500.107 11.6341 500.648 12.125C501.19 12.6243 501.626 13.2253 501.956 13.9277C502.286 14.6217 502.489 15.4004 502.565 16.2637H500.242C500.149 15.7305 500.005 15.2396 499.811 14.791C499.616 14.334 499.362 13.9447 499.049 13.623C498.727 13.3014 498.346 13.0518 497.906 12.874C497.466 12.6878 496.954 12.5947 496.37 12.5947C495.812 12.5947 495.316 12.6921 494.885 12.8867C494.453 13.0729 494.076 13.3268 493.755 13.6484C493.433 13.9701 493.167 14.3467 492.955 14.7783C492.743 15.2015 492.57 15.6501 492.435 16.124C492.299 16.598 492.202 17.0804 492.143 17.5713C492.083 18.0622 492.054 18.5361 492.054 18.9932V21.1641C492.062 21.6296 492.1 22.112 492.168 22.6113C492.244 23.1022 492.358 23.5846 492.511 24.0586C492.663 24.5326 492.858 24.9811 493.095 25.4043C493.332 25.8275 493.619 26.1999 493.958 26.5215C494.288 26.8431 494.673 27.1012 495.113 27.2959C495.553 27.4821 496.053 27.5794 496.611 27.5879C496.933 27.5964 497.267 27.5837 497.614 27.5498C497.97 27.516 498.312 27.4482 498.643 27.3467C498.973 27.2451 499.282 27.1097 499.569 26.9404C499.857 26.7627 500.098 26.5342 500.293 26.2549L500.318 22.1035H496.561V20.123H502.553L502.591 26.9023ZM518.27 21.1514C518.261 21.8115 518.202 22.4801 518.092 23.1572C517.99 23.8258 517.829 24.4733 517.609 25.0996C517.389 25.7259 517.106 26.3099 516.759 26.8516C516.42 27.3932 516.014 27.8672 515.54 28.2734C515.066 28.6797 514.52 29.0013 513.902 29.2383C513.293 29.4668 512.607 29.5811 511.846 29.5811C511.084 29.5811 510.394 29.4668 509.776 29.2383C509.167 29.0013 508.625 28.6797 508.151 28.2734C507.677 27.8672 507.267 27.3932 506.92 26.8516C506.573 26.3014 506.289 25.7132 506.069 25.0869C505.841 24.4606 505.672 23.8132 505.562 23.1445C505.451 22.4759 505.392 21.8115 505.384 21.1514V19.0439C505.392 18.3838 505.447 17.7194 505.549 17.0508C505.659 16.3737 505.828 15.722 506.057 15.0957C506.277 14.4694 506.556 13.8854 506.895 13.3438C507.242 12.7936 507.652 12.3112 508.126 11.8965C508.6 11.4902 509.142 11.1729 509.751 10.9443C510.369 10.7074 511.059 10.5889 511.82 10.5889C512.582 10.5889 513.272 10.7074 513.89 10.9443C514.507 11.1729 515.053 11.4902 515.527 11.8965C516.001 12.3027 516.408 12.7809 516.746 13.3311C517.093 13.8727 517.381 14.4567 517.609 15.083C517.829 15.7093 517.99 16.361 518.092 17.0381C518.202 17.7152 518.261 18.3838 518.27 19.0439V21.1514ZM515.946 19.0186C515.938 18.5785 515.908 18.1214 515.857 17.6475C515.807 17.165 515.722 16.6868 515.604 16.2129C515.477 15.7474 515.312 15.3031 515.108 14.8799C514.905 14.4482 514.651 14.0674 514.347 13.7373C514.042 13.4157 513.682 13.1618 513.268 12.9756C512.853 12.7809 512.37 12.6836 511.82 12.6836C511.279 12.6836 510.8 12.7809 510.386 12.9756C509.971 13.1702 509.611 13.4284 509.307 13.75C509.002 14.0801 508.748 14.4609 508.545 14.8926C508.342 15.3158 508.181 15.7601 508.062 16.2256C507.936 16.6995 507.842 17.1777 507.783 17.6602C507.732 18.1341 507.703 18.5869 507.694 19.0186V21.1514C507.703 21.583 507.732 22.04 507.783 22.5225C507.842 23.0049 507.936 23.4788 508.062 23.9443C508.189 24.4183 508.354 24.8711 508.558 25.3027C508.761 25.7344 509.015 26.111 509.319 26.4326C509.624 26.7627 509.984 27.0251 510.398 27.2197C510.813 27.4144 511.296 27.5117 511.846 27.5117C512.396 27.5117 512.878 27.4144 513.293 27.2197C513.716 27.0251 514.08 26.7627 514.385 26.4326C514.681 26.111 514.926 25.7386 515.121 25.3154C515.324 24.8838 515.489 24.431 515.616 23.957C515.735 23.4915 515.815 23.0176 515.857 22.5352C515.908 22.0527 515.938 21.5915 515.946 21.1514V19.0186ZM528.413 23.3477H526.052V10.8428H528.413V23.3477ZM525.823 28.0957C525.823 27.6895 525.942 27.3509 526.179 27.0801C526.424 26.8092 526.788 26.6738 527.271 26.6738C527.753 26.6738 528.117 26.8092 528.362 27.0801C528.616 27.3509 528.743 27.6895 528.743 28.0957C528.743 28.485 528.616 28.8109 528.362 29.0732C528.117 29.3356 527.753 29.4668 527.271 29.4668C526.788 29.4668 526.424 29.3356 526.179 29.0732C525.942 28.8109 525.823 28.485 525.823 28.0957Z" fill="white"/>
</svg>
