<svg width="930" height="161" viewBox="0 0 930 161" fill="none" xmlns="http://www.w3.org/2000/svg">
<path d="M464.646 160.846C464.842 161.041 465.158 161.041 465.354 160.846L468.536 157.664C468.731 157.469 468.731 157.152 468.536 156.957C468.34 156.762 468.024 156.762 467.828 156.957L465 159.785L462.172 156.957C461.976 156.762 461.66 156.762 461.464 156.957C461.269 157.152 461.269 157.469 461.464 157.664L464.646 160.846ZM464.5 53.3661L464.5 160.492L465.5 160.492L465.5 53.3661L464.5 53.3661Z" fill="white"/>
<path d="M360.556 27.334H369.595V29.3271H358.207V10.8428H360.556V27.334ZM383.687 20.7832H375.968V27.334H384.969V29.3271H373.619V10.8428H384.854V12.8486H375.968V18.79H383.687V20.7832ZM401.6 12.8486H395.887V29.3271H393.602V12.8486H387.889V10.8428H401.6V12.8486ZM411.883 11.4141C411.883 11.8118 411.832 12.2308 411.73 12.6709C411.637 13.111 411.498 13.5426 411.312 13.9658C411.117 14.3975 410.884 14.8079 410.613 15.1973C410.342 15.5866 410.029 15.9336 409.674 16.2383L408.392 15.3242C408.789 14.7233 409.086 14.1097 409.28 13.4834C409.483 12.8571 409.585 12.18 409.585 11.4521V9.54785H411.883V11.4141ZM430.037 24.6553C430.037 24.0882 429.906 23.61 429.644 23.2207C429.39 22.8314 429.06 22.5013 428.653 22.2305C428.247 21.9681 427.799 21.748 427.308 21.5703C426.825 21.3926 426.36 21.2318 425.911 21.0879C425.259 20.8763 424.595 20.6224 423.918 20.3262C423.249 20.0215 422.64 19.6576 422.09 19.2344C421.531 18.8027 421.074 18.2949 420.719 17.7109C420.372 17.1185 420.198 16.4245 420.198 15.6289C420.198 14.8333 420.372 14.1224 420.719 13.4961C421.074 12.8698 421.535 12.3408 422.103 11.9092C422.67 11.4775 423.313 11.1517 424.032 10.9316C424.752 10.7031 425.475 10.5889 426.203 10.5889C427.007 10.5889 427.782 10.7243 428.526 10.9951C429.271 11.2575 429.931 11.6299 430.507 12.1123C431.082 12.5947 431.544 13.1787 431.891 13.8643C432.238 14.5498 432.42 15.3158 432.437 16.1621H430.024C429.957 15.6289 429.826 15.1465 429.631 14.7148C429.436 14.2747 429.178 13.8981 428.856 13.585C428.535 13.2718 428.15 13.0306 427.701 12.8613C427.261 12.6836 426.762 12.5947 426.203 12.5947C425.755 12.5947 425.314 12.6582 424.883 12.7852C424.46 12.9121 424.083 13.1025 423.753 13.3564C423.414 13.6104 423.144 13.9235 422.94 14.2959C422.746 14.6683 422.648 15.0999 422.648 15.5908C422.657 16.124 422.792 16.5768 423.055 16.9492C423.317 17.3132 423.651 17.6221 424.058 17.876C424.455 18.1299 424.887 18.3415 425.353 18.5107C425.826 18.68 426.271 18.8281 426.686 18.9551C427.371 19.1667 428.057 19.4248 428.742 19.7295C429.428 20.0257 430.054 20.4066 430.621 20.8721C431.18 21.3037 431.628 21.8327 431.967 22.459C432.314 23.0853 432.487 23.8089 432.487 24.6299C432.487 25.4593 432.301 26.1829 431.929 26.8008C431.565 27.4186 431.091 27.9307 430.507 28.3369C429.923 28.7516 429.263 29.0648 428.526 29.2764C427.79 29.4795 427.054 29.5811 426.317 29.5811C425.437 29.5811 424.57 29.4329 423.715 29.1367C422.868 28.8405 422.132 28.4131 421.506 27.8545C420.947 27.3721 420.503 26.8092 420.173 26.166C419.851 25.5143 419.678 24.7907 419.652 23.9951H422.052C422.128 24.5706 422.285 25.0827 422.521 25.5312C422.758 25.9714 423.063 26.3438 423.436 26.6484C423.808 26.9616 424.235 27.1986 424.718 27.3594C425.209 27.5117 425.742 27.5879 426.317 27.5879C426.774 27.5879 427.223 27.5329 427.663 27.4229C428.112 27.3044 428.509 27.1224 428.856 26.877C429.203 26.64 429.487 26.3395 429.707 25.9756C429.927 25.6032 430.037 25.1631 430.037 24.6553ZM461.763 20.7832H454.044V27.334H463.045V29.3271H451.695V10.8428H462.931V12.8486H454.044V18.79H461.763V20.7832ZM472.935 18.0918L476.921 10.8428H479.688L474.318 20.0088L479.815 29.3271H477.073L472.985 21.9385L468.885 29.3271H466.104L471.614 20.0088L466.244 10.8428H468.999L472.935 18.0918ZM485.389 21.9131V29.3271H483.04V10.8428H489.032C489.862 10.8597 490.645 10.9909 491.381 11.2363C492.126 11.4818 492.777 11.8372 493.336 12.3027C493.895 12.7682 494.335 13.3438 494.656 14.0293C494.986 14.7148 495.151 15.502 495.151 16.3906C495.151 17.2793 494.986 18.0664 494.656 18.752C494.335 19.429 493.895 20.0003 493.336 20.4658C492.777 20.9313 492.126 21.2868 491.381 21.5322C490.645 21.7777 489.862 21.9046 489.032 21.9131H485.389ZM485.389 19.9834H489.032C489.574 19.9749 490.073 19.8903 490.53 19.7295C490.987 19.5602 491.385 19.3232 491.724 19.0186C492.062 18.7139 492.325 18.3457 492.511 17.9141C492.705 17.474 492.803 16.9746 492.803 16.416C492.803 15.8574 492.705 15.3538 492.511 14.9053C492.325 14.4567 492.066 14.0758 491.736 13.7627C491.398 13.4495 490.996 13.2083 490.53 13.0391C490.073 12.8698 489.574 12.7809 489.032 12.7725H485.389V19.9834ZM501.093 27.334H510.132V29.3271H498.744V10.8428H501.093V27.334ZM526.077 21.1514C526.069 21.8115 526.009 22.4801 525.899 23.1572C525.798 23.8258 525.637 24.4733 525.417 25.0996C525.197 25.7259 524.913 26.3099 524.566 26.8516C524.228 27.3932 523.822 27.8672 523.348 28.2734C522.874 28.6797 522.328 29.0013 521.71 29.2383C521.101 29.4668 520.415 29.5811 519.653 29.5811C518.892 29.5811 518.202 29.4668 517.584 29.2383C516.975 29.0013 516.433 28.6797 515.959 28.2734C515.485 27.8672 515.075 27.3932 514.728 26.8516C514.381 26.3014 514.097 25.7132 513.877 25.0869C513.648 24.4606 513.479 23.8132 513.369 23.1445C513.259 22.4759 513.2 21.8115 513.191 21.1514V19.0439C513.2 18.3838 513.255 17.7194 513.356 17.0508C513.466 16.3737 513.636 15.722 513.864 15.0957C514.084 14.4694 514.364 13.8854 514.702 13.3438C515.049 12.7936 515.46 12.3112 515.934 11.8965C516.408 11.4902 516.949 11.1729 517.559 10.9443C518.176 10.7074 518.866 10.5889 519.628 10.5889C520.39 10.5889 521.079 10.7074 521.697 10.9443C522.315 11.1729 522.861 11.4902 523.335 11.8965C523.809 12.3027 524.215 12.7809 524.554 13.3311C524.901 13.8727 525.188 14.4567 525.417 15.083C525.637 15.7093 525.798 16.361 525.899 17.0381C526.009 17.7152 526.069 18.3838 526.077 19.0439V21.1514ZM523.754 19.0186C523.745 18.5785 523.716 18.1214 523.665 17.6475C523.614 17.165 523.53 16.6868 523.411 16.2129C523.284 15.7474 523.119 15.3031 522.916 14.8799C522.713 14.4482 522.459 14.0674 522.154 13.7373C521.85 13.4157 521.49 13.1618 521.075 12.9756C520.66 12.7809 520.178 12.6836 519.628 12.6836C519.086 12.6836 518.608 12.7809 518.193 12.9756C517.779 13.1702 517.419 13.4284 517.114 13.75C516.81 14.0801 516.556 14.4609 516.353 14.8926C516.149 15.3158 515.989 15.7601 515.87 16.2256C515.743 16.6995 515.65 17.1777 515.591 17.6602C515.54 18.1341 515.51 18.5869 515.502 19.0186V21.1514C515.51 21.583 515.54 22.04 515.591 22.5225C515.65 23.0049 515.743 23.4788 515.87 23.9443C515.997 24.4183 516.162 24.8711 516.365 25.3027C516.568 25.7344 516.822 26.111 517.127 26.4326C517.432 26.7627 517.791 27.0251 518.206 27.2197C518.621 27.4144 519.103 27.5117 519.653 27.5117C520.203 27.5117 520.686 27.4144 521.101 27.2197C521.524 27.0251 521.888 26.7627 522.192 26.4326C522.489 26.111 522.734 25.7386 522.929 25.3154C523.132 24.8838 523.297 24.431 523.424 23.957C523.542 23.4915 523.623 23.0176 523.665 22.5352C523.716 22.0527 523.745 21.5915 523.754 21.1514V19.0186ZM535.789 21.7861H532.095V29.3271H529.759V10.8428H535.18C536.043 10.8597 536.855 10.9824 537.617 11.2109C538.379 11.4395 539.048 11.7822 539.623 12.2393C540.19 12.6963 540.634 13.2718 540.956 13.9658C541.286 14.6514 541.451 15.4596 541.451 16.3906C541.451 16.9915 541.362 17.5417 541.185 18.041C541.015 18.5404 540.778 18.9932 540.474 19.3994C540.169 19.8057 539.805 20.1654 539.382 20.4785C538.959 20.7917 538.493 21.0583 537.985 21.2783L541.908 29.1748L541.896 29.3271H539.42L535.789 21.7861ZM532.095 19.8564H535.243C535.768 19.848 536.263 19.7676 536.729 19.6152C537.194 19.4544 537.605 19.2259 537.96 18.9297C538.307 18.6335 538.582 18.2738 538.785 17.8506C538.988 17.4189 539.09 16.9238 539.09 16.3652C539.09 15.7728 538.993 15.2565 538.798 14.8164C538.603 14.3678 538.332 13.9912 537.985 13.6865C537.638 13.3903 537.224 13.166 536.741 13.0137C536.267 12.8613 535.747 12.7809 535.18 12.7725H532.095V19.8564ZM555.454 20.7832H547.735V27.334H556.736V29.3271H545.387V10.8428H556.622V12.8486H547.735V18.79H555.454V20.7832ZM567.451 23.3477H565.09V10.8428H567.451V23.3477ZM564.861 28.0957C564.861 27.6895 564.98 27.3509 565.217 27.0801C565.462 26.8092 565.826 26.6738 566.309 26.6738C566.791 26.6738 567.155 26.8092 567.4 27.0801C567.654 27.3509 567.781 27.6895 567.781 28.0957C567.781 28.485 567.654 28.8109 567.4 29.0732C567.155 29.3356 566.791 29.4668 566.309 29.4668C565.826 29.4668 565.462 29.3356 565.217 29.0732C564.98 28.8109 564.861 28.485 564.861 28.0957Z" fill="white"/>
</svg>
